HIERARCHY
ROOT Hips
{
	OFFSET 0.000000 0.000000 0.000000
	CHANNELS 6 Xposition Yposition Zposition Zrotation Yrotation Xrotation 
	JOINT LowerBack
	{
		OFFSET 0.000000 0.000000 0.000000
		CHANNELS 3 Zrotation Yrotation Xrotation
		JOINT Spine
		{
			OFFSET 0.028270 2.035590 -0.193380
			CHANNELS 3 Zrotation Yrotation Xrotation
			JOINT Spine1
			{
				OFFSET 0.056720 2.048850 -0.042750
				CHANNELS 3 Zrotation Yrotation Xrotation
				JOINT Neck
				{
					OFFSET 0.000000 0.000000 0.000000
					CHANNELS 3 Zrotation Yrotation Xrotation
					JOINT Neck1
					{
						OFFSET -0.054170 1.746240 0.172020
						CHANNELS 3 Zrotation Yrotation Xrotation
						JOINT Head
						{
							OFFSET 0.104070 1.761360 -0.123970
							CHANNELS 3 Zrotation Yrotation Xrotation
							End Site
							{
								OFFSET 0.000000 0.000000 0.000000
							}
						}
					}
				}
				JOINT LeftShoulder
				{
					OFFSET 0.000000 0.000000 0.000000
					CHANNELS 3 Zrotation Yrotation Xrotation
					JOINT LeftArm
					{
						OFFSET 3.362410 1.200890 -0.311210
						CHANNELS 3 Zrotation Yrotation Xrotation
						JOINT LeftForeArm
						{
							OFFSET 4.983000 -0.000000 -0.000000
							CHANNELS 3 Zrotation Yrotation Xrotation
							JOINT LeftHand
							{
								OFFSET 3.483560 -0.000000 -0.000000
								CHANNELS 3 Zrotation Yrotation Xrotation
								JOINT LeftFingerBase
								{
									OFFSET 0.000000 0.000000 0.000000
									CHANNELS 3 Zrotation Yrotation Xrotation
									JOINT LeftHandIndex1
									{
										OFFSET 0.715260 -0.000000 -0.000000
										CHANNELS 3 Zrotation Yrotation Xrotation
										End Site
										{
											OFFSET 0.000000 0.000000 0.000000
										}
									}
								}
								JOINT LThumb
								{
									OFFSET 0.000000 0.000000 0.000000
									CHANNELS 3 Zrotation Yrotation Xrotation
									End Site
									{
										OFFSET 0.000000 0.000000 0.000000
									}
								}
							}
						}
					}
				}
				JOINT RightShoulder
				{
					OFFSET 0.000000 0.000000 0.000000
					CHANNELS 3 Zrotation Yrotation Xrotation
					JOINT RightArm
					{
						OFFSET -3.136600 1.374050 -0.404650
						CHANNELS 3 Zrotation Yrotation Xrotation
						JOINT RightForeArm
						{
							OFFSET -5.241900 -0.000000 -0.000000
							CHANNELS 3 Zrotation Yrotation Xrotation
							JOINT RightHand
							{
								OFFSET -3.444170 -0.000000 -0.000000
								CHANNELS 3 Zrotation Yrotation Xrotation
								JOINT RightFingerBase
								{
									OFFSET 0.000000 0.000000 0.000000
									CHANNELS 3 Zrotation Yrotation Xrotation
									JOINT RightHandIndex1
									{
										OFFSET -0.622530 -0.000000 -0.000000
										CHANNELS 3 Zrotation Yrotation Xrotation
										End Site
										{
											OFFSET 0.000000 0.000000 0.000000
										}
									}
								}
								JOINT RThumb
								{
									OFFSET 0.000000 0.000000 0.000000
									CHANNELS 3 Zrotation Yrotation Xrotation
									End Site
									{
										OFFSET 0.000000 0.000000 0.000000
									}
								}
							}
						}
					}
				}
			}
		}
	}
}
}
MOTION
Frames: 15
Frame Time: 0.008333
-4.864944 15.356441 1.484610 -131.915129 84.594346 -107.088064 -2.440981 0.197877 10.901082 -1.528157 0.406598 -1.069145 -6.497488 0.410369 -0.895296 8.453968 -5.153345 -6.401255 -2.360312 -0.168445 -0.056627 0.000000 0.000000 0.000000 3.197103 10.540272 3.584767 -72.613993 20.486726 8.707568 -1.888136 -54.009693 -0.004471 -3.895010 8.257399 -0.279552 -0.027639 -0.011765 -0.000000 0.000000 0.000000 0.000000 0.000000 0.000000 0.000000 7.571333 0.664795 -0.853707 71.846313 7.399207 9.002612 0.058348 86.498490 -0.038624 -6.091263 3.129428 -0.189944 0.067244 -0.411598 0.000000 0.000000 0.000000 0.000000 0.000000 0.000000 0.000000 
-4.741975 15.343917 1.473407 -131.022675 84.421629 -106.347307 -2.618508 0.136314 11.026942 -1.571235 0.346015 -1.043835 -6.525478 0.350576 -0.930452 8.410190 -5.015482 -6.282148 -2.380464 -0.171042 -0.027854 0.000000 0.000000 0.000000 3.155931 10.117013 3.561732 -72.694183 19.662401 8.432163 -1.907483 -53.419656 -0.004554 -3.537244 8.270966 -0.253733 -0.030677 -0.007698 -0.000000 0.000000 0.000000 0.000000 0.000000 0.000000 0.000000 7.664259 0.687724 -0.814441 72.416911 7.244964 9.102794 0.083893 85.140053 -0.038859 -6.220580 3.244136 -0.199955 0.067383 -0.406402 0.000000 0.000000 0.000000 0.000000 0.000000 0.000000 0.000000 
-4.621185 15.333421 1.460376 -130.194443 84.243045 -105.679481 -2.782826 0.072995 11.156294 -1.609543 0.283744 -1.015022 -6.545816 0.289262 -0.956329 8.333051 -4.877684 -6.150912 -2.400255 -0.173762 0.004247 0.000000 0.000000 0.000000 3.108617 9.697270 3.528045 -72.761005 18.802095 8.160762 -1.924969 -52.863993 -0.004656 -3.173658 8.259018 -0.226713 -0.033696 -0.003348 -0.000000 0.000000 0.000000 0.000000 0.000000 0.000000 0.000000 7.731569 0.697966 -0.775329 72.959152 7.118573 9.229274 0.109956 83.682132 -0.038884 -6.338934 3.345979 -0.209168 0.067595 -0.400072 0.000000 0.000000 0.000000 0.000000 0.000000 0.000000 0.000000 
-4.502540 15.324808 1.445710 -129.403110 84.058474 -105.053746 -2.936097 0.008837 11.285081 -1.643873 0.220949 -0.983752 -6.560165 0.227599 -0.973056 8.227500 -4.741248 -6.010877 -2.420539 -0.176624 0.038744 0.000000 0.000000 0.000000 3.060317 9.285734 3.484770 -72.814777 17.909716 7.885496 -1.940461 -52.352405 -0.004769 -2.811504 8.219366 -0.199194 -0.036648 0.001294 -0.000000 0.000000 0.000000 0.000000 0.000000 0.000000 0.000000 7.780601 0.697503 -0.735381 73.465663 7.017426 9.383407 0.136647 82.140995 -0.038630 -6.433951 3.434853 -0.216882 0.067760 -0.392708 0.000000 0.000000 0.000000 0.000000 0.000000 0.000000 0.000000 
-4.386039 15.317963 1.429728 -128.634216 83.867890 -104.451032 -3.080851 -0.055252 11.409543 -1.675084 0.158743 -0.950794 -6.570042 0.166724 -0.980144 8.099155 -4.607723 -5.866680 -2.442061 -0.179618 0.074293 0.000000 0.000000 0.000000 3.018381 8.892129 3.433430 -72.855095 16.979761 7.605274 -1.954184 -51.887541 -0.004893 -2.455983 8.151435 -0.171873 -0.039530 0.006254 -0.000000 0.000000 0.000000 0.000000 0.000000 0.000000 0.000000 7.818784 0.688207 -0.694244 73.930430 6.937695 9.564480 0.164264 80.535937 -0.038061 -6.496719 3.513086 -0.222998 0.067787 -0.384482 0.000000 0.000000 0.000000 0.000000 0.000000 0.000000 0.000000 
-4.271619 15.312845 1.412697 -127.886358 83.671278 -103.865935 -3.218865 -0.117881 11.526028 -1.704078 0.098623 -0.918095 -6.577647 0.108005 -0.981783 7.953206 -4.475913 -5.718939 -2.465750 -0.182806 0.110764 0.000000 0.000000 0.000000 2.982464 8.503473 3.375424 -72.880961 16.032079 7.300030 -1.965224 -51.488100 -0.005016 -2.112011 8.058100 -0.145352 -0.042260 0.011508 0.000000 0.000000 0.000000 0.000000 0.000000 0.000000 0.000000 7.852904 0.674791 -0.649665 74.349475 6.867785 9.766417 0.193283 78.887211 -0.037176 -6.521587 3.586033 -0.227614 0.067627 -0.375640 0.000000 0.000000 0.000000 0.000000 0.000000 0.000000 0.000000 
-4.159261 15.309447 1.394853 -127.172612 83.467837 -103.307206 -3.351565 -0.178209 11.632605 -1.731462 0.041471 -0.886176 -6.584213 0.052315 -0.978399 7.794923 -4.346992 -5.571658 -2.492011 -0.186157 0.146976 0.000000 0.000000 0.000000 2.957279 8.125954 3.312405 -72.890809 15.060809 6.969935 -1.973593 -51.154719 -0.005144 -1.779519 7.942585 -0.119930 -0.044870 0.017080 0.000000 0.000000 0.000000 0.000000 0.000000 0.000000 0.000000 7.888346 0.658928 -0.601473 74.720115 6.800338 9.983357 0.224126 77.215386 -0.036004 -6.507270 3.659454 -0.230829 0.067266 -0.366421 0.000000 0.000000 0.000000 0.000000 0.000000 0.000000 0.000000 
-4.048932 15.307761 1.376383 -126.518203 83.256845 -102.797415 -3.479136 -0.235523 11.728108 -1.757507 -0.012030 -0.855538 -6.590659 0.000310 -0.970997 7.628579 -4.221778 -5.427816 -2.521039 -0.189640 0.182081 0.000000 0.000000 0.000000 2.945128 7.762529 3.245767 -72.883447 14.063305 6.614554 -1.979062 -50.889187 -0.005288 -1.455448 7.809599 -0.095609 -0.047401 0.022979 0.000000 0.000000 0.000000 0.000000 0.000000 0.000000 0.000000 7.928492 0.642076 -0.549512 75.040929 6.726813 10.208000 0.257134 75.539439 -0.034597 -6.456339 3.740112 -0.233043 0.066725 -0.357065 0.000000 0.000000 0.000000 0.000000 0.000000 0.000000 0.000000 
-3.940498 15.307795 1.357347 -125.956154 83.036522 -102.367449 -3.600010 -0.289555 11.812489 -1.782079 -0.061720 -0.826679 -6.597701 -0.047908 -0.961624 7.457055 -4.100489 -5.288565 -2.552793 -0.193234 0.215770 0.000000 0.000000 0.000000 2.944678 7.409104 3.176578 -72.857495 13.044755 6.229632 -1.980949 -50.697770 -0.005460 -1.134628 7.665530 -0.072087 -0.049885 0.029194 0.000000 0.000000 0.000000 0.000000 0.000000 0.000000 0.000000 7.974228 0.625431 -0.493337 75.311648 6.637349 10.431360 0.292486 73.876258 -0.033017 -6.374536 3.834391 -0.234856 0.066059 -0.347784 0.000000 0.000000 0.000000 0.000000 0.000000 0.000000 0.000000 
-3.833905 15.309537 1.337702 -125.525716 82.805281 -102.056495 -3.711432 -0.340526 11.886512 -1.804667 -0.107970 -0.799905 -6.605587 -0.092763 -0.952194 7.281932 -3.983606 -5.154294 -2.586958 -0.196911 0.247987 0.000000 0.000000 0.000000 2.953123 7.060329 3.105578 -72.812512 12.012158 5.812241 -1.978430 -50.586825 -0.005685 -0.809798 7.517257 -0.049164 -0.052361 0.035703 0.000000 0.000000 0.000000 0.000000 0.000000 0.000000 0.000000 8.024065 0.609150 -0.432725 75.533939 6.523978 10.645457 0.330199 72.238701 -0.031342 -6.269883 3.947527 -0.236868 0.065345 -0.338747 0.000000 0.000000 0.000000 0.000000 0.000000 0.000000 0.000000 
-3.729028 15.312859 1.317282 -125.264815 82.560494 -101.903187 -3.809297 -0.389281 11.952455 -1.824273 -0.151770 -0.774313 -6.613849 -0.135169 -0.941282 7.104100 -3.873252 -5.027553 -2.622937 -0.200589 0.278009 0.000000 0.000000 0.000000 2.970105 6.727968 3.033244 -72.748676 10.953342 5.376089 -1.971498 -50.549631 -0.005989 -0.470583 7.369692 -0.026240 -0.054957 0.042518 0.000000 0.000000 0.000000 0.000000 0.000000 0.000000 0.000000 8.075327 0.590920 -0.369141 75.709555 6.382732 10.842806 0.370060 70.637457 -0.029620 -6.150017 4.081148 -0.239078 0.064645 -0.330026 0.000000 0.000000 0.000000 0.000000 0.000000 0.000000 0.000000 
-3.625702 15.317678 1.295907 -125.207458 82.299891 -101.943798 -3.889010 -0.437024 12.012644 -1.839844 -0.194499 -0.749747 -6.622185 -0.176524 -0.930270 6.923091 -3.770029 -4.907210 -2.660153 -0.204244 0.306231 0.000000 0.000000 0.000000 2.990640 6.405772 2.959642 -72.667095 9.878254 4.920322 -1.959295 -50.592772 -0.006406 -0.108924 7.228502 -0.002816 -0.057715 0.049605 0.000000 0.000000 0.000000 0.000000 0.000000 0.000000 0.000000 8.123784 0.569347 -0.302672 75.841601 6.209339 11.017137 0.411844 69.078008 -0.027901 -6.023254 4.234921 -0.241886 0.064039 -0.321653 0.000000 0.000000 0.000000 0.000000 0.000000 0.000000 0.000000 
-3.523826 15.323865 1.273365 -125.376975 82.021127 -102.204553 -3.946274 -0.485149 12.069654 -1.850334 -0.237701 -0.725629 -6.630064 -0.218330 -0.919100 6.737987 -3.675681 -4.792854 -2.697996 -0.207841 0.332826 0.000000 0.000000 0.000000 3.011778 6.093489 2.884525 -72.569980 8.790681 4.451122 -1.941342 -50.718347 -0.006970 0.282918 7.097066 0.021508 -0.060699 0.056944 0.000000 0.000000 0.000000 0.000000 0.000000 0.000000 0.000000 8.165184 0.541570 -0.233909 75.933453 6.002592 11.163146 0.455311 67.562224 -0.026218 -5.895934 4.404889 -0.245292 0.063591 -0.313587 0.000000 0.000000 0.000000 0.000000 0.000000 0.000000 0.000000 
-3.423246 15.331242 1.249389 -125.781152 81.721675 -102.696627 -3.976568 -0.535268 12.127039 -1.854617 -0.283100 -0.700385 -6.637030 -0.262147 -0.904548 6.548807 -3.590545 -4.686655 -2.736239 -0.211324 0.357138 0.000000 0.000000 0.000000 3.032645 5.812940 2.808002 -72.458112 7.670685 3.996131 -1.918553 -50.913080 -0.007721 0.712495 6.977095 0.047333 -0.064059 0.064544 0.000000 0.000000 0.000000 0.000000 0.000000 0.000000 0.000000 8.198217 0.506143 -0.165351 75.988381 5.763056 11.270479 0.499961 66.095819 -0.024557 -5.765035 4.577909 -0.248299 0.063223 -0.305668 0.000000 0.000000 0.000000 0.000000 0.000000 0.000000 0.000000 
-3.323827 15.339686 1.224022 -126.420104 81.401226 -103.422989 -3.981107 -0.588358 12.183460 -1.853007 -0.331851 -0.676500 -6.642552 -0.309436 -0.895249 6.352543 -3.518915 -4.578815 -2.773513 -0.214764 0.382269 0.000000 0.000000 0.000000 3.047368 5.498044 2.728286 -72.341493 6.598826 3.499909 -1.887415 -51.222703 -0.008635 1.171211 6.870156 0.073956 -0.067489 0.072270 0.000000 0.000000 0.000000 0.000000 0.000000 0.000000 0.000000 8.213442 0.457321 -0.091791 76.013311 5.494832 11.354812 0.546595 64.655808 -0.022991 -5.650719 4.763399 -0.252303 0.063270 -0.297984 0.000000 0.000000 0.000000 0.000000 0.000000 0.000000 0.000000 
